<svg xmlns="http://www.w3.org/2000/svg" version="1.1" xmlns:xlink="http://www.w3.org/1999/xlink" xmlns:svgjs="http://svgjs.dev/svgjs" width="100%" height="100%" viewBox="0 0 1000 600"><rect width="1000" height="600" x="0" y="0" fill="#116d6e"/><g><circle r="166.66666666666666" cx="381.27810160319007" cy="403.50030624606336" fill="#321e1e" transform="matrix(0.5824482297470076,0,0,0.5824482297470076,0,64.9819969613051)"/><path d="M428.1808985727728 328.500311395606L363.1808985727728 407.8892002844949L363.1808985727728 392.69475584005045L433.1808985727728 478.500311395606L400.5697874616617 478.500311395606L346.56978746166163 410.500311395606L358.1808985727728 410.500311395606L303.9864541283283 478.500311395606L272.1808985727728 478.500311395606L342.37534301721723 393.1114225067171L342.37534301721723 407.500311395606L277.1808985727728 328.500311395606L309.9864541283283 328.500311395606L359.37534301721723 390.30586695116153L347.37534301721723 390.30586695116153L396.37534301721723 328.500311395606L428.1808985727728 328.500311395606ZM443.76423190610615 418.8892002844949L443.76423190610615 397.500311395606L490.37534301721723 397.500311395606L490.37534301721723 418.8892002844949L443.76423190610615 418.8892002844949Z " fill="#000000" transform="matrix(0.5824482297470076,0,0,0.5824482297470076,0,64.9819969613051)"/><path d="M786.8475687017557 331.2047021668978L825.8068712862575 331.2047021668978L825.8068712862575 475.79592825370867L801.49412438129 475.79592825370867L801.49412438129 338.91623422486106L809.4198656630856 339.2911003665676L742.1313932267605 475.79592825370867L714.9535979530358 475.79592825370867L647.6651255167108 339.5053095903999L655.5640906455272 339.1036672957144L655.5640906455272 475.79592825370867L631.2781198935388 475.79592825370867L631.2781198935388 331.2047021668978L670.2106463250616 331.2047021668978L734.9821603813571 464.8177055323027L722.2634877163135 464.8177055323027L786.8475687017557 331.2047021668978ZM945.8979173972476 404.0893905758421L945.8979173972476 404.0893905758421L948.4148757772773 398.49317460322294Q965.5783898368413 398.6806076740762 976.4495079463312 403.68774828115653Q987.3474022088001 408.69488888823685 992.4616474277966 417.1829293825922Q997.5758926467929 425.6709698769476 997.5758926467929 436.27432645664703L997.5758926467929 436.27432645664703Q997.5758926467929 447.84162454359193 992.0867812860901 456.7045311796538Q986.570893772408 465.5674378157158 975.9675371927085 470.68168303471225Q965.364180613009 475.79592825370867 949.566250355376 475.79592825370867L949.566250355376 475.79592825370867L853.1720996308354 475.79592825370867L864.551964646927 401.57243219581244L853.1720996308354 331.2047021668978L946.085350468101 331.2047021668978Q966.1406890494012 331.2047021668978 977.0385833118701 340.54957955658244Q987.9364775743389 349.8944569462671 987.9364775743389 366.281462569439L987.9364775743389 366.281462569439Q987.9364775743389 374.95693613464766 983.7861738625879 383.1504389462336Q979.6358701508368 391.34394175781955 970.4784258320055 397.0472623423548Q961.3209815131742 402.7238067739111 945.8979173972476 404.0893905758421ZM889.0253684697686 401.57243219581244L878.8236541847548 468.6734715612843L868.9700298884684 455.36572353070187L946.6744258336398 455.36572353070187Q958.6165900622912 455.36572353070187 965.2838521540718 449.8766121699989Q971.9243380928735 444.36072465631685 971.9243380928735 434.159010371303L971.9243380928735 434.159010371303Q971.9243380928735 423.36822072075023 964.1324775759733 417.37036245344547Q956.3138409060939 411.39928033911974 941.0782098610206 411.39928033911974L941.0782098610206 411.39928033911974L878.4220118900691 411.39928033911974L878.4220118900691 391.74558405250514L938.5880276339699 391.74558405250514Q948.7897419189839 391.74558405250514 955.5373324697017 386.0422634679698Q962.2849230204195 380.3657190364135 962.2849230204195 369.7623624567141L962.2849230204195 369.7623624567141Q962.2849230204195 361.86339732789753 956.6887070478003 356.7491521089011Q951.1192672281602 351.63490688990464 940.5159106484608 351.63490688990464L940.5159106484608 351.63490688990464L868.9700298884684 351.63490688990464L878.8236541847548 338.3271588593222L889.0253684697686 401.57243219581244ZM1141.765476438918 442.64705086565834L1040.765827401983 442.64705086565834L1040.765827401983 421.6277707771127L1141.765476438918 421.6277707771127L1141.765476438918 442.64705086565834ZM1076.0300208753774 331.2047021668978L1107.8400906144757 331.2047021668978L1177.243879136145 475.79592825370867L1150.0660838624203 475.79592825370867L1087.0350197497623 340.8441172393519L1096.8618678930698 340.8441172393519L1033.8040276274328 475.79592825370867L1006.6262323537082 475.79592825370867L1076.0300208753774 331.2047021668978ZM1320.0946552793182 475.79592825370867L1186.3209949960392 475.79592825370867L1186.3209949960392 456.3296650379473L1293.104293076447 343.9233748319414L1309.491298699619 352.4114153262968L1187.0707272794525 352.4114153262968L1187.0707272794525 331.2047021668978L1319.5323560667584 331.2047021668978L1319.5323560667584 350.48353231180596L1212.5348487625183 463.2646886595184L1198.450592295544 454.5892150943098L1320.0946552793182 454.5892150943098L1320.0946552793182 475.79592825370867ZM1419.380630525595 478.5003197045916L1419.380630525595 478.5003197045916Q1394.7197936319 478.5003197045916 1376.003262699552 469.0483377029908Q1357.3135079201827 459.59635570139005 1346.8975844113363 442.72737932459546Q1336.4816609024904 425.85840294780087 1336.4816609024904 403.50031521030326L1336.4816609024904 403.50031521030326Q1336.4816609024904 381.14222747280564 1346.8975844113363 364.27325109601105Q1357.3135079201827 347.40427471921646 1376.003262699552 337.95229271761565Q1394.7197936319 328.5003107160149 1419.380630525595 328.5003107160149L1419.380630525595 328.5003107160149Q1444.068243572269 328.5003107160149 1462.7579983516382 337.95229271761565Q1481.4745292839866 347.40427471921646 1491.8904527928328 364.27325109601105Q1502.2796001487002 381.14222747280564 1502.2796001487002 403.50031521030326L1502.2796001487002 403.50031521030326Q1502.2796001487002 425.85840294780087 1491.8904527928328 442.72737932459546Q1481.4745292839866 459.59635570139005 1462.7579983516382 469.0483377029908Q1444.068243572269 478.5003197045916 1419.380630525595 478.5003197045916ZM1419.380630525595 455.7405896724084L1419.380630525595 455.7405896724084Q1436.9457868798447 455.7405896724084 1449.6644595448881 449.3946414163762Q1462.383132209932 443.0219170073649 1469.4252604434191 431.2671858495668Q1476.4673886769062 419.51245469176865 1476.4673886769062 403.50031521030326L1476.4673886769062 403.50031521030326Q1476.4673886769062 387.4881757288379 1469.4252604434191 375.73344457103974Q1462.383132209932 363.9787134132416 1449.6644595448881 357.60598900423037Q1436.9457868798447 351.2600407481981 1419.380630525595 351.2600407481981L1419.380630525595 351.2600407481981Q1402.0296833951777 351.2600407481981 1389.2306822711973 357.60598900423037Q1376.4049049942375 363.9787134132416 1369.3627767607502 375.73344457103974Q1362.3206485272628 387.4881757288379 1362.3206485272628 403.50031521030326L1362.3206485272628 403.50031521030326Q1362.3206485272628 419.51245469176865 1369.3627767607502 431.2671858495668Q1376.4049049942375 443.0219170073649 1389.2306822711973 449.3946414163762Q1402.0296833951777 455.7405896724084 1419.380630525595 455.7405896724084Z " fill="#000000" transform="matrix(0.5824482297470076,0,0,0.5824482297470076,0,64.9819969613051)"/></g></svg>